<svg width="294" height="49" viewBox="0 0 294 49" fill="none" xmlns="http://www.w3.org/2000/svg">
<g filter="url(#filter0_dd_146_495)">
<rect x="237.457" y="4.82422" width="46.6143" height="30.0304" rx="5.37857" fill="white"/>
<rect x="237.345" y="4.71217" width="46.8384" height="30.2545" rx="5.49062" stroke="#D6DCE5" stroke-width="0.224107"/>
<path d="M26.0222 14.9452L23.848 25.1088H21.2189L23.3935 14.9452H26.0222ZM37.0839 21.5078L38.4681 17.6911L39.2646 21.5078H37.0839ZM40.0173 25.1088H42.4492L40.3271 14.9452H38.0824C37.578 14.9452 37.1524 15.2386 36.963 15.6909L33.0185 25.1088H35.7795L36.3276 23.5911H39.7008L40.0173 25.1088ZM33.1555 21.7903C33.1668 19.1078 29.4459 18.9601 29.4716 17.7619C29.4794 17.3968 29.8271 17.0094 30.5866 16.91C30.9639 16.8608 32.0013 16.8232 33.1793 17.3652L33.6406 15.21C33.0079 14.9803 32.1937 14.7593 31.1811 14.7593C28.5825 14.7593 26.7534 16.1409 26.738 18.1192C26.7216 19.5823 28.0437 20.3987 29.0399 20.8851C30.0642 21.3834 30.4084 21.7025 30.4039 22.148C30.3971 22.8303 29.5868 23.1307 28.8308 23.1426C27.5087 23.1635 26.7415 22.7859 26.13 22.5009L25.6536 24.7279C26.2677 25.01 27.4016 25.2551 28.578 25.2677C31.3396 25.2677 33.1465 23.9031 33.1555 21.7903ZM22.2653 14.9452L18.0056 25.1088H15.226L13.1299 16.9975C13.0025 16.498 12.8918 16.3153 12.5049 16.1046C11.8734 15.762 10.8295 15.44 9.91113 15.2405L9.97386 14.9452H14.4475C15.0175 14.9452 15.5306 15.3248 15.6599 15.9813L16.7671 21.863L19.503 14.9452H22.2653Z" fill="#1434CB"/>
<path d="M88.2698 13.6726H81.4065V26.0061H88.2698V13.6726Z" fill="#FF5F00"/>
<path d="M81.8423 19.8394C81.8412 18.6515 82.1104 17.4791 82.6294 16.4107C83.1485 15.3423 83.9038 14.4059 84.8382 13.6726C83.6811 12.7631 82.2914 12.1975 80.828 12.0404C79.3647 11.8833 77.8866 12.1412 76.5628 12.7844C75.2391 13.4276 74.123 14.4304 73.3421 15.6779C72.5613 16.9255 72.1472 18.3676 72.1472 19.8394C72.1472 21.3111 72.5613 22.7532 73.3421 24.0008C74.123 25.2484 75.2391 26.2511 76.5628 26.8943C77.8866 27.5376 79.3647 27.7954 80.828 27.6383C82.2914 27.4812 83.6811 26.9156 84.8382 26.0061C83.9038 25.2728 83.1485 24.3364 82.6295 23.268C82.1104 22.1996 81.8413 21.0272 81.8423 19.8394Z" fill="#EB001B"/>
<path d="M97.5287 19.8394C97.5288 21.3111 97.1148 22.7532 96.334 24.0008C95.5532 25.2483 94.4371 26.251 93.1134 26.8943C91.7896 27.5375 90.3116 27.7954 88.8483 27.6383C87.3849 27.4812 85.9953 26.9156 84.8382 26.0061C85.7717 25.272 86.5265 24.3356 87.0454 23.2673C87.5644 22.1991 87.834 21.027 87.834 19.8394C87.834 18.6517 87.5644 17.4796 87.0454 16.4114C86.5265 15.3432 85.7717 14.4067 84.8382 13.6726C85.9953 12.7631 87.3849 12.1975 88.8483 12.0404C90.3116 11.8833 91.7896 12.1412 93.1134 12.7844C94.4371 13.4277 95.5532 14.4304 96.334 15.6779C97.1148 16.9255 97.5288 18.3676 97.5287 19.8394Z" fill="#F79E1B"/>
<path d="M96.7804 24.6998V24.4473H96.8822V24.3959H96.6229V24.4473H96.7248V24.6998H96.7804ZM97.2838 24.6998V24.3954H97.2044L97.1129 24.6048L97.0215 24.3954H96.942V24.6998H96.9981V24.4702L97.0838 24.6681H97.142L97.2278 24.4697V24.6998H97.2838Z" fill="#F79E1B"/>
<path fill-rule="evenodd" clip-rule="evenodd" d="M130.426 15.4702H127.738C127.554 15.4702 127.398 15.6039 127.369 15.7853L126.282 22.6761C126.261 22.8121 126.366 22.9346 126.504 22.9346H127.787C127.971 22.9346 128.127 22.801 128.156 22.6192L128.449 20.7606C128.477 20.5786 128.634 20.4452 128.818 20.4452H129.668C131.439 20.4452 132.46 19.5885 132.727 17.8911C132.848 17.1485 132.732 16.565 132.384 16.1563C132.003 15.7077 131.325 15.4702 130.426 15.4702ZM130.736 17.987C130.589 18.9512 129.852 18.9512 129.139 18.9512H128.734L129.018 17.1503C129.035 17.0416 129.13 16.9614 129.24 16.9614H129.425C129.911 16.9614 130.369 16.9614 130.605 17.238C130.746 17.4031 130.789 17.6482 130.736 17.987ZM138.459 17.9561H137.172C137.063 17.9561 136.968 18.0362 136.951 18.1452L136.894 18.505L136.804 18.3746C136.525 17.9702 135.904 17.8351 135.284 17.8351C133.862 17.8351 132.647 18.9121 132.411 20.423C132.288 21.1765 132.462 21.8971 132.89 22.3997C133.282 22.8617 133.843 23.0543 134.511 23.0543C135.657 23.0543 136.292 22.3175 136.292 22.3175L136.235 22.6752C136.213 22.8119 136.319 22.9345 136.456 22.9345H137.615C137.799 22.9345 137.955 22.8008 137.984 22.619L138.68 18.2146C138.702 18.0792 138.597 17.9561 138.459 17.9561ZM136.665 20.4606C136.541 21.1958 135.957 21.6893 135.213 21.6893C134.84 21.6893 134.541 21.5694 134.349 21.3423C134.159 21.1169 134.086 20.7957 134.147 20.4383C134.263 19.7093 134.856 19.1998 135.589 19.1998C135.955 19.1998 136.252 19.3211 136.447 19.5502C136.644 19.7816 136.721 20.1046 136.665 20.4606ZM144.02 17.9559H145.313C145.495 17.9559 145.6 18.159 145.497 18.3075L141.196 24.5157C141.126 24.6162 141.011 24.676 140.889 24.676H139.597C139.415 24.676 139.309 24.4713 139.414 24.3224L140.754 22.432L139.329 18.2521C139.28 18.1068 139.387 17.9559 139.542 17.9559H140.813C140.978 17.9559 141.123 18.0642 141.171 18.2223L141.927 20.7468L143.711 18.1197C143.781 18.0171 143.897 17.9559 144.02 17.9559Z" fill="#253B80"/>
<path fill-rule="evenodd" clip-rule="evenodd" d="M158.043 22.6755L159.146 15.6587C159.162 15.5498 159.257 15.4696 159.367 15.4692H160.608C160.745 15.4692 160.851 15.5922 160.829 15.7282L159.741 22.6185C159.713 22.8004 159.557 22.934 159.372 22.934H158.263C158.126 22.934 158.021 22.8115 158.043 22.6755ZM149.596 15.4696H146.908C146.724 15.4696 146.568 15.6032 146.539 15.7847L145.452 22.6755C145.431 22.8115 145.536 22.934 145.673 22.934H147.052C147.18 22.934 147.29 22.8406 147.31 22.7133L147.619 20.76C147.647 20.578 147.804 20.4445 147.987 20.4445H148.838C150.608 20.4445 151.63 19.5879 151.897 17.8905C152.017 17.1479 151.902 16.5644 151.554 16.1557C151.172 15.7071 150.495 15.4696 149.596 15.4696ZM149.906 17.9864C149.759 18.9506 149.022 18.9506 148.309 18.9506H147.904L148.189 17.1497C148.206 17.041 148.3 16.9608 148.41 16.9608H148.596C149.081 16.9608 149.539 16.9608 149.776 17.2374C149.917 17.4025 149.96 17.6476 149.906 17.9864ZM157.629 17.9554H156.342C156.232 17.9554 156.138 18.0356 156.122 18.1445L156.065 18.5044L155.974 18.374C155.696 17.9696 155.075 17.8345 154.455 17.8345C153.032 17.8345 151.818 18.9115 151.582 20.4224C151.459 21.1759 151.633 21.8965 152.061 22.3991C152.454 22.8611 153.014 23.0537 153.682 23.0537C154.827 23.0537 155.463 22.3169 155.463 22.3169L155.406 22.6745C155.384 22.8113 155.489 22.9338 155.627 22.9338H156.786C156.97 22.9338 157.126 22.8002 157.155 22.6184L157.851 18.214C157.872 18.0785 157.767 17.9554 157.629 17.9554ZM155.835 20.46C155.711 21.1952 155.127 21.6886 154.383 21.6886C154.01 21.6886 153.71 21.5688 153.518 21.3417C153.328 21.1162 153.257 20.7951 153.317 20.4376C153.433 19.7087 154.026 19.1992 154.759 19.1992C155.124 19.1992 155.421 19.3205 155.617 19.5496C155.814 19.781 155.892 20.104 155.835 20.46Z" fill="#179BD7"/>
<path d="M193.92 15.9059C194.231 15.5169 194.442 14.9947 194.386 14.4609C193.931 14.4836 193.375 14.7613 193.054 15.1506C192.765 15.4839 192.509 16.0281 192.576 16.5394C193.087 16.5838 193.598 16.284 193.92 15.9059Z" fill="#000008"/>
<path d="M194.38 16.6393C193.638 16.5951 193.007 17.0605 192.653 17.0605C192.298 17.0605 191.755 16.6616 191.168 16.6723C190.404 16.6835 189.696 17.1155 189.308 17.8026C188.51 19.177 189.097 21.2158 189.873 22.3352C190.249 22.8891 190.703 23.4988 191.301 23.4769C191.866 23.4548 192.088 23.1111 192.775 23.1111C193.461 23.1111 193.66 23.4769 194.259 23.4658C194.879 23.4548 195.267 22.9118 195.643 22.3574C196.075 21.7261 196.252 21.1165 196.263 21.083C196.252 21.072 195.067 20.6174 195.056 19.2544C195.045 18.1131 195.986 17.5702 196.031 17.5366C195.499 16.7502 194.668 16.6616 194.38 16.6393Z" fill="#000008"/>
<path d="M200.842 15.0947C202.455 15.0947 203.579 16.2066 203.579 17.8255C203.579 19.4501 202.432 20.5678 200.802 20.5678H199.016V23.4079H197.726V15.0947L200.842 15.0947ZM199.016 19.4846H200.497C201.62 19.4846 202.259 18.8798 202.259 17.8313C202.259 16.7828 201.62 16.1836 200.502 16.1836H199.016V19.4846Z" fill="#000008"/>
<path d="M203.916 21.6854C203.916 20.6253 204.728 19.9743 206.169 19.8937L207.828 19.7958V19.3292C207.828 18.6551 207.372 18.2518 206.612 18.2518C205.892 18.2518 205.442 18.5974 205.333 19.139H204.158C204.227 18.0444 205.16 17.2378 206.658 17.2378C208.127 17.2378 209.066 18.0156 209.066 19.2312V23.4079H207.874V22.4113H207.845C207.494 23.0853 206.727 23.5116 205.932 23.5116C204.745 23.5116 203.916 22.7742 203.916 21.6854ZM207.828 21.1381V20.66L206.335 20.7521C205.592 20.804 205.172 21.1324 205.172 21.6509C205.172 22.1808 205.61 22.5265 206.278 22.5265C207.148 22.5265 207.828 21.9273 207.828 21.1381Z" fill="#000008"/>
<path d="M210.192 25.6375V24.6293C210.284 24.6523 210.491 24.6523 210.595 24.6523C211.171 24.6523 211.482 24.4104 211.672 23.7882C211.672 23.7766 211.782 23.4195 211.782 23.4137L209.593 17.3473H210.941L212.473 22.2788H212.496L214.029 17.3473H215.342L213.072 23.7247C212.554 25.1939 211.955 25.6663 210.699 25.6663C210.595 25.6663 210.284 25.6547 210.192 25.6375Z" fill="#000008"/>
<path d="M259.751 23.4385H258.703V15.2803H261.482C262.186 15.2803 262.787 15.5151 263.279 15.9847C263.781 16.4543 264.032 17.0277 264.032 17.7048C264.032 18.3983 263.781 18.9717 263.279 19.4358C262.793 19.9 262.192 20.1294 261.482 20.1294H259.751V23.4385ZM259.751 16.285V19.13H261.504C261.919 19.13 262.268 18.9881 262.541 18.7096C262.82 18.4311 262.962 18.0925 262.962 17.7103C262.962 17.3335 262.82 17.0004 262.541 16.7219C262.268 16.4325 261.924 16.2905 261.504 16.2905H259.751V16.285Z" fill="#3C4043"/>
<path d="M266.773 17.672C267.549 17.672 268.16 17.8796 268.608 18.2946C269.056 18.7096 269.28 19.2775 269.28 19.9983V23.4385H268.28V22.6631H268.237C267.805 23.302 267.226 23.6187 266.506 23.6187C265.889 23.6187 265.375 23.4385 264.96 23.0727C264.545 22.7068 264.338 22.2536 264.338 21.7075C264.338 21.1287 264.556 20.67 264.993 20.3314C265.43 19.9874 266.014 19.8181 266.74 19.8181C267.363 19.8181 267.876 19.9328 268.275 20.1621V19.9218C268.275 19.556 268.133 19.2502 267.844 18.9935C267.554 18.7369 267.216 18.6113 266.828 18.6113C266.244 18.6113 265.779 18.857 265.441 19.3539L264.518 18.7751C265.026 18.0379 265.779 17.672 266.773 17.672ZM265.419 21.7239C265.419 21.9969 265.534 22.2262 265.768 22.4065C265.998 22.5867 266.271 22.6795 266.582 22.6795C267.024 22.6795 267.418 22.5157 267.762 22.188C268.106 21.8604 268.28 21.4781 268.28 21.0358C267.953 20.7792 267.5 20.6481 266.915 20.6481C266.489 20.6481 266.134 20.7519 265.85 20.9539C265.561 21.1669 265.419 21.4235 265.419 21.7239Z" fill="#3C4043"/>
<path d="M274.981 17.8523L271.486 25.8904H270.405L271.704 23.0782L269.4 17.8523H270.541L272.201 21.8604H272.223L273.839 17.8523H274.981Z" fill="#3C4043"/>
<path d="M255.581 19.4686C255.581 19.1268 255.55 18.7997 255.493 18.4851H251.098V20.2872L253.63 20.2877C253.527 20.8873 253.196 21.3984 252.69 21.7392V22.9083H254.197C255.077 22.0941 255.581 20.8906 255.581 19.4686Z" fill="#4285F4"/>
<path d="M252.691 21.7392C252.271 22.0221 251.731 22.1875 251.1 22.1875C249.879 22.1875 248.844 21.3652 248.473 20.2566H246.919V21.4624C247.689 22.9903 249.271 24.0387 251.1 24.0387C252.363 24.0387 253.425 23.6231 254.197 22.9078L252.691 21.7392Z" fill="#34A853"/>
<path d="M248.327 19.3621C248.327 19.0509 248.378 18.75 248.473 18.4671V17.2614H246.919C246.6 17.8932 246.421 18.6064 246.421 19.3621C246.421 20.1179 246.601 20.831 246.919 21.4628L248.473 20.2571C248.378 19.9743 248.327 19.6734 248.327 19.3621Z" fill="#FABB05"/>
<path d="M251.1 16.5362C251.789 16.5362 252.407 16.7738 252.894 17.2379L254.23 15.9039C253.419 15.1487 252.362 14.6851 251.1 14.6851C249.272 14.6851 247.689 15.7335 246.919 17.2614L248.473 18.4671C248.844 17.3586 249.879 16.5362 251.1 16.5362Z" fill="#E94235"/>
</g>
<defs>
<filter id="filter0_dd_146_495" x="0.946847" y="0.117955" width="292.313" height="48.4071" filterUnits="userSpaceOnUse" color-interpolation-filters="sRGB">
<feFlood flood-opacity="0" result="BackgroundImageFix"/>
<feColorMatrix in="SourceAlpha" type="matrix" values="0 0 0 0 0 0 0 0 0 0 0 0 0 0 0 0 0 0 127 0" result="hardAlpha"/>
<feOffset dy="0.448214"/>
<feGaussianBlur stdDeviation="2.24107"/>
<feColorMatrix type="matrix" values="0 0 0 0 0.717647 0 0 0 0 0.717647 0 0 0 0 0.717647 0 0 0 0.08 0"/>
<feBlend mode="normal" in2="BackgroundImageFix" result="effect1_dropShadow_146_495"/>
<feColorMatrix in="SourceAlpha" type="matrix" values="0 0 0 0 0 0 0 0 0 0 0 0 0 0 0 0 0 0 127 0" result="hardAlpha"/>
<feOffset dy="4.48214"/>
<feGaussianBlur stdDeviation="4.48214"/>
<feColorMatrix type="matrix" values="0 0 0 0 0.717647 0 0 0 0 0.717647 0 0 0 0 0.717647 0 0 0 0.08 0"/>
<feBlend mode="normal" in2="effect1_dropShadow_146_495" result="effect2_dropShadow_146_495"/>
<feBlend mode="normal" in="SourceGraphic" in2="effect2_dropShadow_146_495" result="shape"/>
</filter>
</defs>
</svg>
